<?xml version="1.0" encoding="UTF-8" standalone="no"?>
<!-- Created with Inkscape (http://www.inkscape.org/) -->

<svg
   xmlns:dc="http://purl.org/dc/elements/1.1/"
   xmlns:cc="http://creativecommons.org/ns#"
   xmlns:rdf="http://www.w3.org/1999/02/22-rdf-syntax-ns#"
   xmlns:svg="http://www.w3.org/2000/svg"
   xmlns="http://www.w3.org/2000/svg"
   xmlns:sodipodi="http://sodipodi.sourceforge.net/DTD/sodipodi-0.dtd"
   xmlns:inkscape="http://www.inkscape.org/namespaces/inkscape"
   width="744.09448819"
   height="1052.3622047"
   id="svg6502"
   version="1.1"
   inkscape:version="0.48.4 r9939"
   sodipodi:docname="tiles.svg">
  <defs
     id="defs6504" />
  <sodipodi:namedview
     id="base"
     pagecolor="#ffffff"
     bordercolor="#666666"
     borderopacity="1.0"
     inkscape:pageopacity="0.0"
     inkscape:pageshadow="2"
     inkscape:zoom="1.4"
     inkscape:cx="289.2414"
     inkscape:cy="466.42857"
     inkscape:document-units="px"
     inkscape:current-layer="layer1"
     showgrid="false"
     inkscape:window-width="1920"
     inkscape:window-height="1138"
     inkscape:window-x="2040"
     inkscape:window-y="-8"
     inkscape:window-maximized="1" />
  <metadata
     id="metadata6507">
    <rdf:RDF>
      <cc:Work
         rdf:about="">
        <dc:format>image/svg+xml</dc:format>
        <dc:type
           rdf:resource="http://purl.org/dc/dcmitype/StillImage" />
        <dc:title></dc:title>
      </cc:Work>
    </rdf:RDF>
  </metadata>
  <g
     inkscape:label="Layer 1"
     inkscape:groupmode="layer"
     id="layer1">
    <path
       id="path3832"
       d="m 250,139.36218 -70,0 0,-2 70,0 0,2"
       inkscape:connector-curvature="0"
       style="fill:#ffffff;stroke:none" />
    <path
       id="path4994"
       d="m 595.14286,562.28789 0,-1.64 64,0 0,1.64 -64,0"
       inkscape:connector-curvature="0"
       style="fill:#93a3a3;stroke:none"
       inkscape:export-filename="C:\Users\Ted\Projects\stellar\assets\source\path5002.png"
       inkscape:export-xdpi="90"
       inkscape:export-ydpi="90" />
    <path
       id="path4996"
       d="m 595.14286,562.28789 64,0 0,13.88 q -0.13714,3.76 -4.57143,3.76 l -22.85714,0 q -1.69143,0 -2.74286,-0.52 -1.78286,-0.92 -1.82857,-3.4 -0.0914,3.92 -4.57143,3.92 l -22.85714,0 q -4.43429,0 -4.57143,-3.76 l 0,-7.76 0,-0.2 0,-5.92"
       inkscape:connector-curvature="0"
       style="fill:#869595;stroke:none"
       inkscape:export-filename="C:\Users\Ted\Projects\stellar\assets\source\path5002.png"
       inkscape:export-xdpi="90"
       inkscape:export-ydpi="90" />
    <path
       id="path4998"
       d="m 659.14286,576.16789 0,4 q -0.13714,3.76 -4.57143,3.76 l -22.85714,0 q -4.48,0 -4.57143,-3.88 -0.0914,3.88 -4.57143,3.88 l -7.31428,0 -12.8,0 -2.74286,0 q -4.43429,0 -4.57143,-3.76 l 0,-4 q 0.13714,3.76 4.57143,3.76 l 22.85714,0 q 4.48,0 4.57143,-3.92 0.0457,2.48 1.82857,3.4 1.05143,0.52 2.74286,0.52 l 22.85714,0 q 4.43429,0 4.57143,-3.76 m -48.45714,16.48 -9.14286,0 q 0.0914,-2.32 2.78857,-2.32 l 3.52,0 q 2.74286,0 2.83429,2.32"
       inkscape:connector-curvature="0"
       style="fill:#a1b1b1;stroke:none"
       inkscape:export-filename="C:\Users\Ted\Projects\stellar\assets\source\path5002.png"
       inkscape:export-xdpi="90"
       inkscape:export-ydpi="90" />
    <path
       id="path5000"
       d="m 610.68572,592.64789 q -0.0914,-2.32 -2.83429,-2.32 l -3.52,0 q -2.69714,0 -2.78857,2.32 l -6.4,0 0,-12.48 q 0.13714,3.76 4.57143,3.76 l 2.74286,0 0,1.56 q 0,3.24 3.70285,3.24 l 5.34857,0 q 3.74858,0 3.74858,-3.24 l 0,-1.56 7.31428,0 q 4.48,0 4.57143,-3.88 0.0914,3.88 4.57143,3.88 l 22.85714,0 q 4.43429,0 4.57143,-3.76 l 0,12.48 -48.45714,0"
       inkscape:connector-curvature="0"
       style="fill:#acc0c1;stroke:none"
       inkscape:export-filename="C:\Users\Ted\Projects\stellar\assets\source\path5002.png"
       inkscape:export-xdpi="90"
       inkscape:export-ydpi="90" />
    <path
       id="path5002"
       d="m 615.25715,583.92789 0,1.56 q 0,3.24 -3.74858,3.24 l -5.34857,0 q -3.70285,0 -3.70285,-3.24 l 0,-1.56 12.8,0"
       inkscape:connector-curvature="0"
       style="fill:#bbcbcc;stroke:none"
       inkscape:export-xdpi="90"
       inkscape:export-ydpi="90" />
    <path
       id="path5004"
       d="m 595.14286,489.60789 0,-1.2 0,-0.2 0,-0.2 q 0,-0.72 0.13714,-1.36 l 0.0914,-0.36 0.0457,-0.36 0.0457,-0.08 q 0.54857,-2.28 2.33143,-3.56 2.14857,-1.64 6.17143,-1.64 l 46.35428,0 1.96572,0.12 0.0914,0 q 2.56,0.32 4.16,1.52 1.50857,1.12 2.14857,3 0.41143,1.2 0.45714,2.76 l 0,1.56 q -0.22857,-7.16 -8.41143,-7.32 l -46.76571,0 -0.36572,0 q -6.30857,0.12 -7.90857,4.36 -0.50286,1.28 -0.54857,2.96"
       inkscape:connector-curvature="0"
       style="fill:#93a3a3;stroke:none"
       inkscape:export-filename="C:\Users\Ted\Projects\stellar\assets\source\path5012.png"
       inkscape:export-xdpi="90"
       inkscape:export-ydpi="90" />
    <path
       id="path5006"
       d="m 595.14286,489.60789 q 0.0457,-1.68 0.54857,-2.96 1.6,-4.24 7.90857,-4.36 l 0.36572,0 46.76571,0 q 8.18286,0.16 8.41143,7.32 l 0,6.56 q -0.13714,3.76 -4.57143,3.76 l -22.85714,0 q -1.69143,0 -2.74286,-0.52 -1.78286,-0.92 -1.82857,-3.4 -0.0914,3.92 -4.57143,3.92 l -22.85714,0 q -4.43429,0 -4.57143,-3.76 l 0,-6.56"
       inkscape:connector-curvature="0"
       style="fill:#869595;stroke:none"
       inkscape:export-filename="C:\Users\Ted\Projects\stellar\assets\source\path5012.png"
       inkscape:export-xdpi="90"
       inkscape:export-ydpi="90" />
    <path
       id="path5008"
       d="m 659.14286,496.16789 0,4 q -0.0914,3 -2.92571,3.6 l -1.64572,0.16 -22.85714,0 q -4.48,0 -4.57143,-3.88 -0.0914,3.48 -3.65714,3.84 l -0.91429,0.04 -7.31428,0 -12.8,0 -2.74286,0 -1.64572,-0.16 q -2.83428,-0.6 -2.92571,-3.6 l 0,-4 q 0.13714,3.76 4.57143,3.76 l 22.85714,0 q 4.48,0 4.57143,-3.92 0.0457,2.48 1.82857,3.4 1.05143,0.52 2.74286,0.52 l 22.85714,0 q 4.43429,0 4.57143,-3.76 m -48.45714,16.48 -9.14286,0 0,-0.16 q 0.18286,-2.16 2.78857,-2.16 l 3.52,0 q 2.74286,0 2.83429,2.32"
       inkscape:connector-curvature="0"
       style="fill:#a1b1b1;stroke:none"
       inkscape:export-filename="C:\Users\Ted\Projects\stellar\assets\source\path5012.png"
       inkscape:export-xdpi="90"
       inkscape:export-ydpi="90" />
    <path
       id="path5010"
       d="m 610.68572,512.64789 q -0.0914,-2.32 -2.83429,-2.32 l -3.52,0 q -2.60571,0 -2.78857,2.16 -2.24,-0.36 -3.70286,-1.36 l -1.09714,-1 q -1.50857,-1.8 -1.6,-4.8 l 0,-5.16 q 0.0914,3 2.92571,3.6 l 1.64572,0.16 2.74286,0 0,1.56 q 0,3.24 3.70285,3.24 l 5.34857,0 q 3.74858,0 3.74858,-3.24 l 0,-1.56 7.31428,0 0.91429,-0.04 q 3.56571,-0.36 3.65714,-3.84 0.0914,3.88 4.57143,3.88 l 22.85714,0 1.64572,-0.16 q 2.83428,-0.6 2.92571,-3.6 l 0,5.16 0,0.52 -0.0914,0.8 q -0.32,2.04 -1.46286,3.44 l -1.14285,1.04 q -2.19429,1.52 -6.12572,1.52 l -39.63428,0"
       inkscape:connector-curvature="0"
       style="fill:#acc0c1;stroke:none"
       inkscape:export-filename="C:\Users\Ted\Projects\stellar\assets\source\path5012.png"
       inkscape:export-xdpi="90"
       inkscape:export-ydpi="90" />
    <path
       id="path5012"
       d="m 615.25715,503.92789 0,1.56 q 0,3.24 -3.74858,3.24 l -5.34857,0 q -3.70285,0 -3.70285,-3.24 l 0,-1.56 12.8,0"
       inkscape:connector-curvature="0"
       style="fill:#bbcbcc;stroke:none"
       inkscape:export-xdpi="90"
       inkscape:export-ydpi="90" />
    <path
       id="path5014"
       d="m 739.14286,496.16789 q -0.13714,3.76 -4.57143,3.76 l -22.85714,0 q -1.69143,0 -2.74286,-0.52 -1.78286,-0.92 -1.82857,-3.4 -0.0914,3.92 -4.57143,3.92 l -22.85714,0 q -4.43429,0 -4.57143,-3.76 l 0,-6.56 q 0.0457,-1.68 0.54857,-2.96 1.6,-4.24 7.90857,-4.36 l 0.36572,0 55.17714,0 0,13.88"
       inkscape:connector-curvature="0"
       style="fill:#869595;stroke:none"
       inkscape:export-filename="C:\Users\Ted\Projects\stellar\assets\source\path5022.png"
       inkscape:export-xdpi="90"
       inkscape:export-ydpi="90" />
    <path
       id="path5016"
       d="m 739.14286,496.16789 0,4 q -0.0914,3 -2.92571,3.6 l -1.64572,0.16 -22.85714,0 q -4.48,0 -4.57143,-3.88 -0.0914,3.48 -3.65714,3.84 l -0.91429,0.04 -7.31428,0 -12.8,0 -2.74286,0 -1.64572,-0.16 q -2.83428,-0.6 -2.92571,-3.6 l 0,-4 q 0.13714,3.76 4.57143,3.76 l 22.85714,0 q 4.48,0 4.57143,-3.92 0.0457,2.48 1.82857,3.4 1.05143,0.52 2.74286,0.52 l 22.85714,0 q 4.43429,0 4.57143,-3.76 m -57.6,16.32 q 0.18286,-2.16 2.78857,-2.16 l 3.52,0 q 2.74286,0 2.83429,2.32 l -9.14286,0 0,-0.16"
       inkscape:connector-curvature="0"
       style="fill:#a1b1b1;stroke:none"
       inkscape:export-filename="C:\Users\Ted\Projects\stellar\assets\source\path5022.png"
       inkscape:export-xdpi="90"
       inkscape:export-ydpi="90" />
    <path
       id="path5018"
       d="m 681.54286,512.48789 q -2.24,-0.36 -3.70286,-1.36 l -1.09714,-1 q -1.50857,-1.8 -1.6,-4.8 l 0,-5.16 q 0.0914,3 2.92571,3.6 l 1.64572,0.16 2.74286,0 0,1.56 q 0,3.24 3.70285,3.24 l 5.34857,0 q 3.74858,0 3.74858,-3.24 l 0,-1.56 7.31428,0 0.91429,-0.04 q 3.56571,-0.36 3.65714,-3.84 0.0914,3.88 4.57143,3.88 l 22.85714,0 1.64572,-0.16 q 2.83428,-0.6 2.92571,-3.6 l 0,12.48 -48.45714,0 q -0.0914,-2.32 -2.83429,-2.32 l -3.52,0 q -2.60571,0 -2.78857,2.16"
       inkscape:connector-curvature="0"
       style="fill:#acc0c1;stroke:none"
       inkscape:export-filename="C:\Users\Ted\Projects\stellar\assets\source\path5022.png"
       inkscape:export-xdpi="90"
       inkscape:export-ydpi="90" />
    <path
       id="path5020"
       d="m 682.45715,503.92789 12.8,0 0,1.56 q 0,3.24 -3.74858,3.24 l -5.34857,0 q -3.70285,0 -3.70285,-3.24 l 0,-1.56"
       inkscape:connector-curvature="0"
       style="fill:#bbcbcc;stroke:none"
       inkscape:export-filename="C:\Users\Ted\Projects\stellar\assets\source\path5022.png"
       inkscape:export-xdpi="90"
       inkscape:export-ydpi="90" />
    <path
       id="path5022"
       d="m 739.14286,482.28789 -55.17714,0 -0.36572,0 q -6.30857,0.12 -7.90857,4.36 -0.50286,1.28 -0.54857,2.96 l 0,-1.2 0,-0.2 0,-0.2 q 0,-0.72 0.13714,-1.36 l 0.0914,-0.36 0.0457,-0.36 0.0457,-0.08 q 0.54857,-2.28 2.33143,-3.56 2.14857,-1.64 6.17143,-1.64 l 55.17714,0 0,1.64"
       inkscape:connector-curvature="0"
       style="fill:#93a3a3;stroke:none"
       inkscape:export-xdpi="90"
       inkscape:export-ydpi="90" />
    <path
       id="path5024"
       d="m 675.14286,562.28789 8.45714,0 0.36572,0 46.76571,0 q 8.18286,0.16 8.41143,7.32 l 0,6.56 q -0.13714,3.76 -4.57143,3.76 l -22.85714,0 q -1.69143,0 -2.74286,-0.52 -1.78286,-0.92 -1.82857,-3.4 -0.0914,3.92 -4.57143,3.92 l -22.85714,0 q -4.43429,0 -4.57143,-3.76 l 0,-13.88"
       inkscape:connector-curvature="0"
       style="fill:#869595;stroke:none"
       inkscape:export-filename="C:\Users\Ted\Projects\stellar\assets\source\path5032.png"
       inkscape:export-xdpi="90"
       inkscape:export-ydpi="90" />
    <path
       id="path5026"
       d="m 675.14286,562.28789 0,-1.64 55.17714,0 1.96572,0.12 0.0914,0 q 2.56,0.32 4.16,1.52 1.50857,1.12 2.14857,3 0.41143,1.2 0.45714,2.76 l 0,1.56 q -0.22857,-7.16 -8.41143,-7.32 l -46.76571,0 -0.36572,0 -8.45714,0"
       inkscape:connector-curvature="0"
       style="fill:#93a3a3;stroke:none"
       inkscape:export-filename="C:\Users\Ted\Projects\stellar\assets\source\path5032.png"
       inkscape:export-xdpi="90"
       inkscape:export-ydpi="90" />
    <path
       id="path5028"
       d="m 695.25715,583.92789 7.31428,0 0.91429,-0.04 q 3.56571,-0.36 3.65714,-3.84 0.0914,3.88 4.57143,3.88 l 22.85714,0 1.64572,-0.16 q 2.83428,-0.6 2.92571,-3.6 l 0,5.16 0,0.52 -0.0914,0.8 q -0.32,2.04 -1.46286,3.44 l -1.14285,1.04 q -2.19429,1.52 -6.12572,1.52 l -39.63428,0 q -0.0914,-2.32 -2.83429,-2.32 l -3.52,0 q -2.60571,0 -2.78857,2.16 l 0,0.16 -6.4,0 0,-12.48 q 0.0914,3 2.92571,3.6 l 1.64572,0.16 2.74286,0 0,1.56 q 0,3.24 3.70285,3.24 l 5.34857,0 q 3.74858,0 3.74858,-3.24 l 0,-1.56"
       inkscape:connector-curvature="0"
       style="fill:#acc0c1;stroke:none"
       inkscape:export-filename="C:\Users\Ted\Projects\stellar\assets\source\path5032.png"
       inkscape:export-xdpi="90"
       inkscape:export-ydpi="90" />
    <path
       id="path5030"
       d="m 695.25715,583.92789 -12.8,0 -2.74286,0 -1.64572,-0.16 q -2.83428,-0.6 -2.92571,-3.6 l 0,-4 q 0.13714,3.76 4.57143,3.76 l 22.85714,0 q 4.48,0 4.57143,-3.92 0.0457,2.48 1.82857,3.4 1.05143,0.52 2.74286,0.52 l 22.85714,0 q 4.43429,0 4.57143,-3.76 l 0,4 q -0.0914,3 -2.92571,3.6 l -1.64572,0.16 -22.85714,0 q -4.48,0 -4.57143,-3.88 -0.0914,3.48 -3.65714,3.84 l -0.91429,0.04 -7.31428,0 m -13.71429,8.72 0,-0.16 q 0.18286,-2.16 2.78857,-2.16 l 3.52,0 q 2.74286,0 2.83429,2.32 l -9.14286,0"
       inkscape:connector-curvature="0"
       style="fill:#a1b1b1;stroke:none"
       inkscape:export-filename="C:\Users\Ted\Projects\stellar\assets\source\path5032.png"
       inkscape:export-xdpi="90"
       inkscape:export-ydpi="90" />
    <path
       id="path5032"
       d="m 695.25715,583.92789 0,1.56 q 0,3.24 -3.74858,3.24 l -5.34857,0 q -3.70285,0 -3.70285,-3.24 l 0,-1.56 12.8,0"
       inkscape:connector-curvature="0"
       style="fill:#bbcbcc;stroke:none"
       inkscape:export-xdpi="90"
       inkscape:export-ydpi="90" />
    <path
       id="path5098"
       d="m 115.14286,568.47075 0,-0.22857 0,-8.59429 64,0 0,55.63429 0,0.59428 0,7.77143 -64,0 0,-55.17714 m 36.61714,6.72 q -2.78857,0 -2.78857,2.78857 l 0,3.52 q 0,2.83428 2.78857,2.83428 l 3.52,0 q 2.83429,0 2.83429,-2.83428 l 0,-3.52 q 0,-2.78857 -2.83429,-2.78857 l -3.52,0 m -20.25143,3.65714 -5.34857,0 q -3.70285,0 -3.70285,3.70286 l 0,5.39428 q 0,3.70286 3.70285,3.70286 l 5.34857,0 q 3.74858,0 3.74858,-3.70286 l 0,-5.39428 q 0,-3.70286 -3.74858,-3.70286 m -7.17714,14.62857 q -2.78857,0 -2.78857,2.78857 l 0,3.52 q 0,2.83429 2.78857,2.83429 l 3.52,0 q 2.83429,0 2.83429,-2.83429 l 0,-3.52 q 0,-2.78857 -2.83429,-2.78857 l -3.52,0 m 27.97714,23.72572 q 3.06286,0 3.06286,-3.10858 l 0,-5.66857 q 0,-3.10857 -3.06286,-3.10857 l -5.71428,0 q -3.10857,0 -3.10857,3.10857 l 0,5.66857 q 0,3.10858 3.10857,3.10858 l 5.71428,0 m 8.45715,-19.15429 q -3.56572,0 -3.56572,3.56571 l 0,6.58286 q 0,3.56572 3.56572,3.56572 l 6.53714,0 q 3.61143,0 3.61143,-3.56572 l 0,-6.58286 q 0,-3.56571 -3.61143,-3.56571 l -6.53714,0"
       inkscape:connector-curvature="0"
       style="fill:#acc0c1;stroke:none"
       inkscape:export-filename="C:\Users\Ted\Projects\stellar\assets\source\path5102.png"
       inkscape:export-xdpi="90"
       inkscape:export-ydpi="90" />
    <path
       id="path5100"
       d="m 160.76572,598.04789 6.53714,0 q 3.61143,0 3.61143,3.56571 l 0,6.58286 q 0,3.56572 -3.61143,3.56572 l -6.53714,0 q -3.56572,0 -3.56572,-3.56572 l 0,-6.58286 q 0,-3.56571 3.56572,-3.56571 m -9.00572,-22.85714 3.52,0 q 2.83429,0 2.83429,2.78857 l 0,3.52 q 0,2.83428 -2.83429,2.83428 l -3.52,0 q -2.78857,0 -2.78857,-2.83428 l 0,-3.52 q 0,-2.78857 2.78857,-2.78857 m -27.42857,18.28571 3.52,0 q 2.83429,0 2.83429,2.78857 l 0,3.52 q 0,2.83429 -2.83429,2.83429 l -3.52,0 q -2.78857,0 -2.78857,-2.83429 l 0,-3.52 q 0,-2.78857 2.78857,-2.78857"
       inkscape:connector-curvature="0"
       style="fill:#a1b1b1;stroke:none"
       inkscape:export-filename="C:\Users\Ted\Projects\stellar\assets\source\path5102.png"
       inkscape:export-xdpi="90"
       inkscape:export-ydpi="90" />
    <path
       id="path5102"
       d="m 131.50857,578.84789 q 3.74858,0 3.74858,3.70286 l 0,5.39428 q 0,3.70286 -3.74858,3.70286 l -5.34857,0 q -3.70285,0 -3.70285,-3.70286 l 0,-5.39428 q 0,-3.70286 3.70285,-3.70286 l 5.34857,0 m 20.8,38.35429 -5.71428,0 q -3.10857,0 -3.10857,-3.10858 l 0,-5.66857 q 0,-3.10857 3.10857,-3.10857 l 5.71428,0 q 3.06286,0 3.06286,3.10857 l 0,5.66857 q 0,3.10858 -3.06286,3.10858"
       inkscape:connector-curvature="0"
       style="fill:#bbcbcc;stroke:none"
       inkscape:export-xdpi="90"
       inkscape:export-ydpi="90" />
    <path
       id="path5104"
       d="m 358.84572,480.47872 q 1.69143,-0.92152 4.20571,-1.10583 l 0.13714,0 0.0914,0 0.13715,0 0.13714,0 0.13714,0 0.13714,0 0.13715,0 46.35428,0 q 4.02286,0 6.21715,1.84305 l 0.68571,0.64507 q 1.82857,2.11951 1.92,5.98992 l 0,1.79698 q -0.22857,-8.24766 -8.41143,-8.43197 l -0.41143,0 -46.35428,0 -0.36572,0 q -6.30857,0.13823 -7.90857,5.02232 -0.50286,1.47444 -0.54857,3.40965 l 0,-1.38229 0,-0.23038 0,-0.23038 q 0,-0.82938 0.13714,-1.5666 l 0.0914,-0.41469 0.0457,-0.41468 0.0457,-0.0922 q 0.27429,-1.29013 0.82286,-2.30381 l 0.68571,-0.9676 0.82286,-0.82938 1.05143,-0.73722"
       inkscape:connector-curvature="0"
       style="fill:#93a3a3;stroke:none"
       inkscape:export-filename="C:\Users\Ted\Projects\stellar\assets\source\path5114.png"
       inkscape:export-xdpi="90"
       inkscape:export-ydpi="90" />
    <path
       id="path5106"
       d="m 355.14286,489.64791 q 0.0457,-1.93521 0.54857,-3.40965 1.6,-4.88409 7.90857,-5.02232 l 0.36572,0 46.35428,0 0.41143,0 q 8.18286,0.18431 8.41143,8.43197 l 0,7.55651 q -0.13714,4.2851 -4.57143,4.2851 l -22.85714,0 q -1.69143,0 -2.74286,-0.59899 -1.78286,-1.05976 -1.82857,-3.87041 -0.0914,4.4694 -4.57143,4.4694 l -22.85714,0 q -4.43429,0 -4.57143,-4.2851 l 0,-7.55651"
       inkscape:connector-curvature="0"
       style="fill:#869595;stroke:none"
       inkscape:export-filename="C:\Users\Ted\Projects\stellar\assets\source\path5114.png"
       inkscape:export-xdpi="90"
       inkscape:export-ydpi="90" />
    <path
       id="path5108"
       d="m 419.14286,497.20442 0,4.56156 q -0.13714,4.33117 -4.57143,4.33117 l -22.85714,0 q -4.48,0 -4.57143,-4.4694 -0.0914,4.4694 -4.57143,4.4694 l -7.31428,0 -12.8,0 -2.74286,0 q -4.43429,0 -4.57143,-4.33117 l 0,-4.56156 q 0.13714,4.2851 4.57143,4.2851 l 22.85714,0 q 4.48,0 4.57143,-4.4694 0.0457,2.81065 1.82857,3.87041 1.05143,0.59899 2.74286,0.59899 l 22.85714,0 q 4.43429,0 4.57143,-4.2851 m -55.63429,25.43413 -1.00571,-1.29014 -0.96,-1.29013 0,-0.23039 0,-3.54787 q 0,-2.81066 2.78857,-2.81066 l 3.52,0 q 2.83429,0 2.83429,2.81066 l 0,3.54787 q 0,2.85674 -2.83429,2.85674 l -3.52,0 -0.82286,-0.0461 m 33.69143,5.66739 0,-6.63499 q 0,-3.59396 3.56572,-3.59396 l 6.53714,0 q 3.61143,0 3.61143,3.59396 l 0,6.63499 q 0,3.59395 -3.61143,3.59395 l -6.53714,0 q -3.56572,0 -3.56572,-3.59395"
       inkscape:connector-curvature="0"
       style="fill:#a1b1b1;stroke:none"
       inkscape:export-filename="C:\Users\Ted\Projects\stellar\assets\source\path5114.png"
       inkscape:export-xdpi="90"
       inkscape:export-ydpi="90" />
    <path
       id="path5110"
       d="m 386.36572,537.38297 q -1.41715,-0.0461 -2.10286,-0.7833 -0.77714,-0.7833 -0.77714,-2.34989 l 0,-5.71346 q 0,-3.13319 3.10857,-3.13319 l 5.71428,0 q 3.06286,0 3.06286,3.13319 l 0,5.71346 q 0,3.13319 -3.06286,3.13319 l -5.71428,0 -0.22857,0 m -11.10857,-31.28582 0,1.79698 q 0,3.73218 -3.74858,3.73218 l -5.34857,0 q -3.70285,0 -3.70285,-3.73218 l 0,-1.79698 12.8,0"
       inkscape:connector-curvature="0"
       style="fill:#bbcbcc;stroke:none"
       inkscape:export-filename="C:\Users\Ted\Projects\stellar\assets\source\path5114.png"
       inkscape:export-xdpi="90"
       inkscape:export-ydpi="90" />
    <path
       id="path5112"
       d="m 375.25715,506.09715 7.31428,0 q 4.48,0 4.57143,-4.4694 0.0914,4.4694 4.57143,4.4694 l 22.85714,0 q 4.43429,0 4.57143,-4.33117 l 0,33.68178 0,0.599 -0.0914,0.92152 q -0.32,2.34989 -1.46286,3.96257 l -1.14285,1.19798 q -1.00572,0.82937 -2.37715,1.24406 -7.90857,-0.87545 -14.72,-2.34989 l -0.0914,0 -3.84,-0.92153 -0.13715,0 -8.91428,-2.7185 0.22857,0 5.71428,0 q 3.06286,0 3.06286,-3.13319 l 0,-5.71346 q 0,-3.13319 -3.06286,-3.13319 l -5.71428,0 q -3.10857,0 -3.10857,3.13319 l 0,5.71346 q 0,1.56659 0.77714,2.34989 l -1.23429,-0.50684 -0.13714,-0.0461 q -12.43428,-5.16055 -19.38286,-13.40821 l 0.82286,0.0461 3.52,0 q 2.83429,0 2.83429,-2.85674 l 0,-3.54787 q 0,-2.81066 -2.83429,-2.81066 l -3.52,0 q -2.78857,0 -2.78857,2.81066 l 0,3.54787 0,0.23039 q -2.42286,-3.54788 -3.97714,-7.55652 l -0.0457,-0.0461 q -1.82857,-4.83801 -2.37714,-10.27501 l 0,-0.41469 q 0.13714,4.33117 4.57143,4.33117 l 2.74286,0 0,1.79698 q 0,3.73218 3.70285,3.73218 l 5.34857,0 q 3.74858,0 3.74858,-3.73218 l 0,-1.79698 M 397.2,528.30594 q 0,3.59395 3.56572,3.59395 l 6.53714,0 q 3.61143,0 3.61143,-3.59395 l 0,-6.63499 q 0,-3.59396 -3.61143,-3.59396 l -6.53714,0 q -3.56572,0 -3.56572,3.59396 l 0,6.63499"
       inkscape:connector-curvature="0"
       style="fill:#acc0c1;stroke:none"
       inkscape:export-filename="C:\Users\Ted\Projects\stellar\assets\source\path5114.png"
       inkscape:export-xdpi="90"
       inkscape:export-ydpi="90" />
    <path
       id="path5114"
       d="m 358.84572,480.47872 -1.05143,0.73722 -0.82286,0.82938 q 0.73143,-0.96761 1.87429,-1.5666"
       inkscape:connector-curvature="0"
       style="fill:#cfdada;stroke:none"
       inkscape:export-xdpi="90"
       inkscape:export-ydpi="90" />
    <path
       id="path5116"
       d="m 358.57143,560.66303 0.27429,-0.18431 q 1.69143,-0.92152 4.20571,-1.10583 l 0.13714,0 0.0914,0 0.13715,0 0.13714,0 0.13714,0 0.13714,0 0.13715,0 46.35428,0 q 4.02286,0 6.21715,1.84305 l 0.68571,0.64507 q 1.82857,2.11951 1.92,5.98992 l 0,1.79698 q -0.22857,-8.24766 -8.41143,-8.43197 l -0.41143,0 -46.35428,0 -0.36572,0 q -6.30857,0.13823 -7.90857,5.02232 -0.50286,1.47444 -0.54857,3.40965 l 0,-1.38229 0,-0.23038 0,-0.23038 q 0,-0.82938 0.13714,-1.5666 l 0.0914,-0.41469 0.0457,-0.41468 0.0457,-0.0922 q 0.27429,-1.29013 0.82286,-2.30381 l 0.68571,-0.9676 0.82286,-0.82938 0.77714,-0.55291"
       inkscape:connector-curvature="0"
       style="fill:#93a3a3;stroke:none"
       inkscape:export-filename="C:\Users\Ted\Projects\stellar\assets\source\path5126.png"
       inkscape:export-xdpi="90"
       inkscape:export-ydpi="90" />
    <path
       id="path5118"
       d="m 358.57143,560.66303 -0.77714,0.55291 -0.82286,0.82938 q 0.64,-0.82938 1.6,-1.38229"
       inkscape:connector-curvature="0"
       style="fill:#cfdada;stroke:none"
       inkscape:export-filename="C:\Users\Ted\Projects\stellar\assets\source\path5126.png"
       inkscape:export-xdpi="90"
       inkscape:export-ydpi="90" />
    <path
       id="path5120"
       d="m 355.14286,569.64791 q 0.0457,-1.93521 0.54857,-3.40965 1.6,-4.88409 7.90857,-5.02232 l 0.36572,0 46.35428,0 0.41143,0 q 8.18286,0.18431 8.41143,8.43197 l 0,7.55651 q -0.13714,4.2851 -4.57143,4.2851 l -22.85714,0 q -1.69143,0 -2.74286,-0.59899 -1.78286,-1.05976 -1.82857,-3.87041 -0.0914,4.4694 -4.57143,4.4694 l -22.85714,0 q -4.43429,0 -4.57143,-4.2851 l 0,-7.55651"
       inkscape:connector-curvature="0"
       style="fill:#869595;stroke:none"
       inkscape:export-filename="C:\Users\Ted\Projects\stellar\assets\source\path5126.png"
       inkscape:export-xdpi="90"
       inkscape:export-ydpi="90" />
    <path
       id="path5122"
       d="m 419.14286,577.20442 0,4.56156 q -0.13714,4.33117 -4.57143,4.33117 l -22.85714,0 q -4.48,0 -4.57143,-4.4694 -0.0914,4.4694 -4.57143,4.4694 l -7.31428,0 -12.8,0 -2.74286,0 q -4.43429,0 -4.57143,-4.33117 l 0,-4.56156 q 0.13714,4.2851 4.57143,4.2851 l 22.85714,0 q 4.48,0 4.57143,-4.4694 0.0457,2.81065 1.82857,3.87041 1.05143,0.59899 2.74286,0.59899 l 22.85714,0 q 4.43429,0 4.57143,-4.2851 m -8.22857,25.24982 Q 406.48,607.75302 399.80572,611.85381 397.2,611.39305 397.2,608.30594 l 0,-6.63499 q 0,-3.59396 3.56572,-3.59396 l 6.53714,0 q 3.61143,0 3.61143,3.59396 l 0,0.78329 m -46.58286,-8.98488 3.52,0 q 2.83429,0 2.83429,2.81066 l 0,3.54787 q 0,2.85674 -2.83429,2.85674 l -3.52,0 q -2.78857,0 -2.78857,-2.85674 l 0,-3.54787 q 0,-2.81066 2.78857,-2.81066"
       inkscape:connector-curvature="0"
       style="fill:#a1b1b1;stroke:none"
       inkscape:export-filename="C:\Users\Ted\Projects\stellar\assets\source\path5126.png"
       inkscape:export-xdpi="90"
       inkscape:export-ydpi="90" />
    <path
       id="path5124"
       d="m 364.33143,593.46936 q -2.78857,0 -2.78857,2.81066 l 0,3.54787 q 0,2.85674 2.78857,2.85674 l 3.52,0 q 2.83429,0 2.83429,-2.85674 l 0,-3.54787 q 0,-2.81066 -2.83429,-2.81066 l -3.52,0 m 54.81143,-11.70338 0,0.41469 q -0.54857,5.437 -2.37714,10.27501 l -0.0457,0.0461 q -1.82857,4.79194 -4.93714,8.84665 l -0.86857,1.10583 0,-0.78329 q 0,-3.59396 -3.61143,-3.59396 l -6.53714,0 q -3.56572,0 -3.56572,3.59396 l 0,6.63499 q 0,3.08711 2.60572,3.54787 l -4.43429,2.39597 0,-5.71346 q 0,-3.13319 -3.06286,-3.13319 l -5.71428,0 q -3.10857,0 -3.10857,3.13319 l 0,5.71346 q 0,3.13319 3.10857,3.13319 l 1.32571,0 q -4.16,1.52052 -8.91428,2.7185 l -0.13715,0 -3.84,0.92153 -0.0914,0 -14.67429,2.34989 q -1.41714,-0.41469 -2.42286,-1.24406 l -1.09714,-1.15191 q -1.50857,-2.07343 -1.6,-5.52916 l 0,-33.68178 q 0.13714,4.33117 4.57143,4.33117 l 2.74286,0 0,1.79698 q 0,3.73218 3.70285,3.73218 l 5.34857,0 q 3.74858,0 3.74858,-3.73218 l 0,-1.79698 7.31428,0 q 4.48,0 4.57143,-4.4694 0.0914,4.4694 4.57143,4.4694 l 22.85714,0 q 4.43429,0 4.57143,-4.33117"
       inkscape:connector-curvature="0"
       style="fill:#acc0c1;stroke:none"
       inkscape:export-filename="C:\Users\Ted\Projects\stellar\assets\source\path5126.png"
       inkscape:export-xdpi="90"
       inkscape:export-ydpi="90" />
    <path
       id="path5126"
       d="m 395.37143,614.24978 -3.97714,1.79698 -0.13714,0.0461 -3.33715,1.29014 -1.32571,0 q -3.10857,0 -3.10857,-3.13319 l 0,-5.71346 q 0,-3.13319 3.10857,-3.13319 l 5.71428,0 q 3.06286,0 3.06286,3.13319 l 0,5.71346 m -20.11428,-28.15263 0,1.79698 q 0,3.73218 -3.74858,3.73218 l -5.34857,0 q -3.70285,0 -3.70285,-3.73218 l 0,-1.79698 12.8,0"
       inkscape:connector-curvature="0"
       style="fill:#bbcbcc;stroke:none"
       inkscape:export-xdpi="90"
       inkscape:export-ydpi="90" />
    <path
       id="path5128"
       d="m 195.14286,569.84218 q 0.0457,-1.92 0.54857,-3.38286 1.6,-4.84572 7.90857,-4.98286 l 0.36572,0 46.35428,0 0.41143,0 q 8.18286,0.18286 8.41143,8.36572 l 0,7.49714 q -0.13714,4.25143 -4.57143,4.25143 l -22.85714,0 q -1.69143,0 -2.74286,-0.59429 -1.78286,-1.05143 -1.82857,-3.84 -0.0914,4.43429 -4.57143,4.43429 l -22.85714,0 q -4.43429,0 -4.57143,-4.25143 l 0,-7.49714"
       inkscape:connector-curvature="0"
       style="fill:#869595;stroke:none"
       inkscape:export-filename="C:\Users\Ted\Projects\stellar\assets\source\path5138.png"
       inkscape:export-xdpi="90"
       inkscape:export-ydpi="90" />
    <path
       id="path5130"
       d="m 195.14286,569.84218 0,-1.37143 0,-0.22857 0,-0.22858 q 0,-0.82285 0.13714,-1.55428 l 0.0914,-0.41143 0.0457,-0.41143 0.0457,-0.0914 q 0.27429,-1.28 0.82286,-2.28571 l 0.68571,-0.96 0.82286,-0.82286 0.77714,-0.54857 0.27429,-0.18286 q 1.69143,-0.91428 4.20571,-1.09714 l 0.13714,0 0.0914,0 0.13715,0 0.13714,0 0.13714,0 0.13714,0 0.13715,0 46.35428,0 q 4.02286,0 6.21715,1.82857 l 0.68571,0.64 q 1.82857,2.10286 1.92,5.94286 l 0,1.78286 q -0.22857,-8.18286 -8.41143,-8.36572 l -0.41143,0 -46.35428,0 -0.36572,0 q -6.30857,0.13714 -7.90857,4.98286 -0.50286,1.46286 -0.54857,3.38286"
       inkscape:connector-curvature="0"
       style="fill:#93a3a3;stroke:none"
       inkscape:export-filename="C:\Users\Ted\Projects\stellar\assets\source\path5138.png"
       inkscape:export-xdpi="90"
       inkscape:export-ydpi="90" />
    <path
       id="path5132"
       d="m 250.59429,586.16218 -0.13714,0.0914 q -10.97143,7.08572 -19.10858,15.90858 l -0.0457,0 -2.78857,3.15428 -1.92,0 q -3.10857,0 -3.10857,3.10857 l 0,3.47429 q -2.97143,4.25143 -5.34857,8.82286 l -0.0457,0.0457 -1.46286,2.88 -12.66285,0 q -3.93143,0 -6.12572,-1.73714 l -1.09714,-1.14286 q -1.50857,-2.05714 -1.6,-5.48571 l 0,-33.41715 q 0.13714,4.29715 4.57143,4.29715 l 2.74286,0 0,1.78285 q 0,3.70286 3.70285,3.70286 l 5.34857,0 q 3.74858,0 3.74858,-3.70286 l 0,-1.78285 7.31428,0 q 4.48,0 4.57143,-4.43429 0.0914,4.43429 4.57143,4.43429 l 18.88,0 m -49.05143,13.62285 q 0,2.83429 2.78857,2.83429 l 3.52,0 q 2.83429,0 2.83429,-2.83429 l 0,-3.52 q 0,-2.78857 -2.83429,-2.78857 l -3.52,0 q -2.78857,0 -2.78857,2.78857 l 0,3.52"
       inkscape:connector-curvature="0"
       style="fill:#acc0c1;stroke:none"
       inkscape:export-filename="C:\Users\Ted\Projects\stellar\assets\source\path5138.png"
       inkscape:export-xdpi="90"
       inkscape:export-ydpi="90" />
    <path
       id="path5134"
       d="m 201.54286,599.78503 0,-3.52 q 0,-2.78857 2.78857,-2.78857 l 3.52,0 q 2.83429,0 2.83429,2.78857 l 0,3.52 q 0,2.83429 -2.83429,2.83429 l -3.52,0 q -2.78857,0 -2.78857,-2.83429 m 57.6,-22.44571 0,3.79428 -2.97143,1.64572 q -2.88,1.64571 -5.57714,3.38286 l -18.88,0 q -4.48,0 -4.57143,-4.43429 -0.0914,4.43429 -4.57143,4.43429 l -7.31428,0 -12.8,0 -2.74286,0 q -4.43429,0 -4.57143,-4.29715 l 0,-4.52571 q 0.13714,4.25143 4.57143,4.25143 l 22.85714,0 q 4.48,0 4.57143,-4.43429 0.0457,2.78857 1.82857,3.84 1.05143,0.59429 2.74286,0.59429 l 22.85714,0 q 4.43429,0 4.57143,-4.25143"
       inkscape:connector-curvature="0"
       style="fill:#a1b1b1;stroke:none"
       inkscape:export-filename="C:\Users\Ted\Projects\stellar\assets\source\path5138.png"
       inkscape:export-xdpi="90"
       inkscape:export-ydpi="90" />
    <path
       id="path5136"
       d="m 198.57143,560.92789 -0.77714,0.54857 -0.82286,0.82286 q 0.64,-0.82286 1.6,-1.37143"
       inkscape:connector-curvature="0"
       style="fill:#cfdada;stroke:none"
       inkscape:export-filename="C:\Users\Ted\Projects\stellar\assets\source\path5138.png"
       inkscape:export-xdpi="90"
       inkscape:export-ydpi="90" />
    <path
       id="path5138"
       d="m 228.51429,605.31646 q -2.69714,3.15429 -5.02857,6.58286 l 0,-3.47429 q 0,-3.10857 3.10857,-3.10857 l 1.92,0 m -13.25714,-19.15428 0,1.78285 q 0,3.70286 -3.74858,3.70286 l -5.34857,0 q -3.70285,0 -3.70285,-3.70286 l 0,-1.78285 12.8,0"
       inkscape:connector-curvature="0"
       style="fill:#bbcbcc;stroke:none"
       inkscape:export-xdpi="90"
       inkscape:export-ydpi="90" />
    <path
       id="path5140"
       d="m 36.97143,562.29932 0.822857,-0.82286 1.051428,-0.73143 q 1.691429,-0.91428 4.205715,-1.09714 l 0.137142,0 0.09143,0 0.137143,0 0.137143,0 0.137143,0 0.137142,0 0.137143,0 46.354284,0 q 4.022857,0 6.217143,1.82857 l 0.685717,0.64 q 1.828571,2.10286 1.919999,5.94286 l 0,1.78286 q -0.228571,-8.18286 -8.41143,-8.36572 l -0.411429,0 -46.354284,0 -0.365714,0 q -6.308571,0.13714 -7.908571,4.98286 -0.502857,1.46286 -0.548571,3.38286 l 0,-1.37143 0,-0.22857 0,-0.22858 q 0,-0.82285 0.137142,-1.55428 l 0.09143,-0.41143 0.04571,-0.41143 0.04571,-0.0914 q 0.274286,-1.28 0.822858,-2.28571 l 0.685714,-0.96"
       inkscape:connector-curvature="0"
       style="fill:#93a3a3;stroke:none"
       inkscape:export-filename="C:\Users\Ted\Projects\stellar\assets\source\path5150.png"
       inkscape:export-xdpi="90"
       inkscape:export-ydpi="90" />
    <path
       id="path5142"
       d="m 36.97143,562.29932 q 0.731428,-0.96 1.874285,-1.55429 l -1.051428,0.73143 -0.822857,0.82286"
       inkscape:connector-curvature="0"
       style="fill:#cfdada;stroke:none"
       inkscape:export-filename="C:\Users\Ted\Projects\stellar\assets\source\path5150.png"
       inkscape:export-xdpi="90"
       inkscape:export-ydpi="90" />
    <path
       id="path5144"
       d="m 99.142858,569.84218 0,7.49714 q -0.137142,4.25143 -4.571431,4.25143 l -22.857141,0 q -1.691429,0 -2.742858,-0.59429 -1.782857,-1.05143 -1.828571,-3.84 -0.09143,4.43429 -4.571428,4.43429 l -22.857142,0 q -4.434286,0 -4.571428,-4.25143 l 0,-7.49714 q 0.04571,-1.92 0.548571,-3.38286 1.6,-4.84572 7.908571,-4.98286 l 0.365714,0 46.354284,0 0.411429,0 q 8.182859,0.18286 8.41143,8.36572"
       inkscape:connector-curvature="0"
       style="fill:#869595;stroke:none"
       inkscape:export-filename="C:\Users\Ted\Projects\stellar\assets\source\path5150.png"
       inkscape:export-xdpi="90"
       inkscape:export-ydpi="90" />
    <path
       id="path5146"
       d="m 99.142858,577.33932 0,4.52571 q -0.137142,4.29715 -4.571431,4.29715 l -22.857141,0 q -4.48,0 -4.571429,-4.43429 -0.09143,4.43429 -4.571428,4.43429 l -7.314286,0 -11.565713,0 q -2.697143,-1.73715 -5.577143,-3.38286 l -2.971428,-1.64572 0,-3.79428 q 0.137142,4.25143 4.571428,4.25143 l 22.857142,0 q 4.48,0 4.571428,-4.43429 0.04571,2.78857 1.828571,3.84 1.051429,0.59429 2.742858,0.59429 l 22.857141,0 q 4.434289,0 4.571431,-4.25143 m -18.377144,20.70857 6.537142,0 q 3.611429,0 3.611429,3.56571 l 0,6.58286 q 0,3.56572 -3.611429,3.56572 l -6.537142,0 Q 77.2,611.76218 77.2,608.19646 l 0,-6.58286 q 0,-3.56571 3.565714,-3.56571"
       inkscape:connector-curvature="0"
       style="fill:#a1b1b1;stroke:none"
       inkscape:export-filename="C:\Users\Ted\Projects\stellar\assets\source\path5150.png"
       inkscape:export-xdpi="90"
       inkscape:export-ydpi="90" />
    <path
       id="path5148"
       d="M 80.765714,598.04789 Q 77.2,598.04789 77.2,601.6136 l 0,6.58286 q 0,3.56572 3.565714,3.56572 l 6.537142,0 q 3.611429,0 3.611429,-3.56572 l 0,-6.58286 q 0,-3.56571 -3.611429,-3.56571 l -6.537142,0 m 18.377144,-16.18286 0,33.41715 0,0.59428 -0.09143,0.91429 q -0.32,2.33143 -1.462857,3.93143 l -1.14286,1.18857 q -2.194286,1.73714 -6.125714,1.73714 l -12.662857,0 -1.462857,-2.88 -0.137143,-0.22857 L 74,616.88218 q 1.371428,-0.68572 1.371428,-2.78858 l 0,-5.66857 q 0,-3.10857 -3.062857,-3.10857 l -5.714285,0 -0.777143,0.0457 -2.834286,-3.2 q -5.211428,-5.62286 -11.519999,-10.51429 l 0.04571,0 q 3.748571,0 3.748571,-3.70286 l 0,-1.78285 7.314286,0 q 4.48,0 4.571428,-4.43429 0.09143,4.43429 4.571429,4.43429 l 22.857141,0 q 4.434289,0 4.571432,-4.29715"
       inkscape:connector-curvature="0"
       style="fill:#acc0c1;stroke:none"
       inkscape:export-filename="C:\Users\Ted\Projects\stellar\assets\source\path5150.png"
       inkscape:export-xdpi="90"
       inkscape:export-ydpi="90" />
    <path
       id="path5150"
       d="m 74,616.88218 q -3.611429,-6.08 -8.182857,-11.52 l 0.777143,-0.0457 5.714285,0 q 3.062857,0 3.062857,3.10857 l 0,5.66857 q 0,2.10286 -1.371428,2.78858 M 51.462858,591.64789 q -3.611429,-2.83429 -7.588571,-5.39429 l -0.04572,0 -0.137142,-0.0914 11.565713,0 0,1.78285 q 0,3.70286 -3.748571,3.70286 l -0.04571,0"
       inkscape:connector-curvature="0"
       style="fill:#bbcbcc;stroke:none"
       inkscape:export-xdpi="90"
       inkscape:export-ydpi="90" />
    <path
       id="path5152"
       d="m 38.845715,480.74503 q 1.691429,-0.91428 4.205715,-1.09714 l 0.137142,0 0.09143,0 0.137143,0 0.137143,0 0.137143,0 0.137142,0 0.137143,0 46.354284,0 q 4.022857,0 6.217143,1.82857 l 0.685717,0.64 q 1.828571,2.10286 1.919999,5.94286 l 0,1.78286 q -0.228571,-8.18286 -8.41143,-8.36572 l -0.411429,0 -46.354284,0 -0.365714,0 q -6.308571,0.13714 -7.908571,4.98286 -0.502857,1.46286 -0.548572,3.38286 l 0,-1.37143 0,-0.22857 0,-0.22858 q 0,-0.82285 0.137143,-1.55428 l 0.09143,-0.41143 0.04571,-0.41143 0.04571,-0.0914 q 0.274286,-1.28 0.822858,-2.28571 l 0.685714,-0.96 0.822857,-0.82286 1.051428,-0.73143"
       inkscape:connector-curvature="0"
       style="fill:#93a3a3;stroke:none"
       inkscape:export-filename="C:\Users\Ted\Projects\stellar\assets\source\path5162.png"
       inkscape:export-xdpi="90"
       inkscape:export-ydpi="90" />
    <path
       id="path5154"
       d="m 35.142859,489.84218 q 0.04571,-1.92 0.548571,-3.38286 1.6,-4.84572 7.908571,-4.98286 l 0.365714,0 46.354284,0 0.411429,0 q 8.182859,0.18286 8.41143,8.36572 l 0,7.49714 q -0.137142,4.25143 -4.571431,4.25143 l -22.857141,0 q -1.691429,0 -2.742858,-0.59429 -1.782857,-1.05143 -1.828571,-3.84 -0.09143,4.43429 -4.571428,4.43429 l -22.857142,0 q -4.434286,0 -4.571428,-4.25143 l 0,-7.49714"
       inkscape:connector-curvature="0"
       style="fill:#869595;stroke:none"
       inkscape:export-filename="C:\Users\Ted\Projects\stellar\assets\source\path5162.png"
       inkscape:export-xdpi="90"
       inkscape:export-ydpi="90" />
    <path
       id="path5156"
       d="m 99.142858,497.33932 0,4.52571 q -0.137142,4.29715 -4.571431,4.29715 l -22.857141,0 q -4.48,0 -4.571429,-4.43429 -0.09143,4.43429 -4.571428,4.43429 l -7.314286,0 -12.799999,0 -2.742857,0 q -4.434286,0 -4.571428,-4.29715 l 0,-4.52571 q 0.137142,4.25143 4.571428,4.25143 l 22.857142,0 q 4.48,0 4.571428,-4.43429 0.04571,2.78857 1.828571,3.84 1.051429,0.59429 2.742858,0.59429 l 22.857141,0 q 4.434289,0 4.571431,-4.25143 m -54.811428,16.13714 3.519999,0 q 2.834286,0 2.834286,2.78857 l 0,3.52 q 0,2.83429 -2.834286,2.83429 l -3.519999,0 q -2.788572,0 -2.788572,-2.83429 l 0,-3.52 q 0,-2.78857 2.788572,-2.78857 M 77.2,521.6136 q 0,-3.56571 3.565714,-3.56571 l 6.537142,0 q 3.611429,0 3.611429,3.56571 l 0,6.58286 q 0,3.56572 -3.611429,3.56572 l -6.537142,0 Q 77.2,531.76218 77.2,528.19646 l 0,-6.58286"
       inkscape:connector-curvature="0"
       style="fill:#a1b1b1;stroke:none"
       inkscape:export-filename="C:\Users\Ted\Projects\stellar\assets\source\path5162.png"
       inkscape:export-xdpi="90"
       inkscape:export-ydpi="90" />
    <path
       id="path5158"
       d="m 55.257143,506.16218 0,1.78285 q 0,3.70286 -3.748571,3.70286 l -5.348571,0 q -3.702857,0 -3.702857,-3.70286 l 0,-1.78285 12.799999,0 m 11.337143,19.15428 5.714285,0 q 3.062857,0 3.062857,3.10857 l 0,5.66857 q 0,3.10858 -3.062857,3.10858 l -5.714285,0 q -3.108572,0 -3.108572,-3.10858 l 0,-5.66857 q 0,-3.10857 3.108572,-3.10857"
       inkscape:connector-curvature="0"
       style="fill:#bbcbcc;stroke:none"
       inkscape:export-filename="C:\Users\Ted\Projects\stellar\assets\source\path5162.png"
       inkscape:export-xdpi="90"
       inkscape:export-ydpi="90" />
    <path
       id="path5160"
       d="m 66.594286,525.31646 q -3.108572,0 -3.108572,3.10857 l 0,5.66857 q 0,3.10858 3.108572,3.10858 l 5.714285,0 q 3.062857,0 3.062857,-3.10858 l 0,-5.66857 q 0,-3.10857 -3.062857,-3.10857 l -5.714285,0 m 32.548572,-23.45143 0,33.41715 0,0.59428 -0.09143,0.91429 q -0.32,2.33143 -1.462857,3.93143 l -1.14286,1.18857 q -2.194286,1.73714 -6.125714,1.73714 l -46.354284,0 q -3.931428,0 -6.125714,-1.73714 l -1.097143,-1.14286 q -1.508571,-2.05714 -1.599999,-5.48571 l 0,-33.41715 q 0.137142,4.29715 4.571428,4.29715 l 2.742857,0 0,1.78285 q 0,3.70286 3.702857,3.70286 l 5.348571,0 q 3.748571,0 3.748571,-3.70286 l 0,-1.78285 7.314286,0 q 4.48,0 4.571428,-4.43429 0.09143,4.43429 4.571429,4.43429 l 22.857141,0 q 4.434289,0 4.571431,-4.29715 M 44.33143,513.47646 q -2.788572,0 -2.788572,2.78857 l 0,3.52 q 0,2.83429 2.788572,2.83429 l 3.519999,0 q 2.834286,0 2.834286,-2.83429 l 0,-3.52 q 0,-2.78857 -2.834286,-2.78857 l -3.519999,0 M 77.2,521.6136 l 0,6.58286 q 0,3.56572 3.565714,3.56572 l 6.537142,0 q 3.611429,0 3.611429,-3.56572 l 0,-6.58286 q 0,-3.56571 -3.611429,-3.56571 l -6.537142,0 Q 77.2,518.04789 77.2,521.6136"
       inkscape:connector-curvature="0"
       style="fill:#acc0c1;stroke:none"
       inkscape:export-filename="C:\Users\Ted\Projects\stellar\assets\source\path5162.png"
       inkscape:export-xdpi="90"
       inkscape:export-ydpi="90" />
    <path
       id="path5162"
       d="m 38.845715,480.74503 -1.051428,0.73143 -0.822857,0.82286 q 0.731428,-0.96 1.874285,-1.55429"
       inkscape:connector-curvature="0"
       style="fill:#cfdada;stroke:none"
       inkscape:export-xdpi="90"
       inkscape:export-ydpi="90" />
    <path
       id="path5164"
       d="m 195.14286,497.33932 q 0.13714,4.25143 4.57143,4.25143 l 22.85714,0 q 4.48,0 4.57143,-4.43429 0.0457,2.78857 1.82857,3.84 1.05143,0.59429 2.74286,0.59429 l 22.85714,0 q 4.43429,0 4.57143,-4.25143 l 0,4.52571 q -0.13714,4.29715 -4.57143,4.29715 l -22.85714,0 q -4.48,0 -4.57143,-4.43429 -0.0914,4.43429 -4.57143,4.43429 l -7.31428,0 -12.8,0 -2.74286,0 q -4.43429,0 -4.57143,-4.29715 l 0,-4.52571 m 52.16,20.70857 q 3.61143,0 3.61143,3.56571 l 0,6.58286 q 0,3.56572 -3.61143,3.56572 l -6.53714,0 q -3.56572,0 -3.56572,-3.56572 l 0,-6.58286 q 0,-3.56571 3.56572,-3.56571 l 6.53714,0 m -42.97143,-4.57143 3.52,0 q 2.83429,0 2.83429,2.78857 l 0,3.52 q 0,2.83429 -2.83429,2.83429 l -3.52,0 q -2.78857,0 -2.78857,-2.83429 l 0,-3.52 q 0,-2.78857 2.78857,-2.78857"
       inkscape:connector-curvature="0"
       style="fill:#a1b1b1;stroke:none"
       inkscape:export-filename="C:\Users\Ted\Projects\stellar\assets\source\path5172.png"
       inkscape:export-xdpi="90"
       inkscape:export-ydpi="90" />
    <path
       id="path5166"
       d="m 204.33143,513.47646 q -2.78857,0 -2.78857,2.78857 l 0,3.52 q 0,2.83429 2.78857,2.83429 l 3.52,0 q 2.83429,0 2.83429,-2.83429 l 0,-3.52 q 0,-2.78857 -2.83429,-2.78857 l -3.52,0 m -9.18857,-11.61143 q 0.13714,4.29715 4.57143,4.29715 l 2.74286,0 0,1.78285 q 0,3.70286 3.70285,3.70286 l 5.34857,0 q 3.74858,0 3.74858,-3.70286 l 0,-1.78285 7.31428,0 q 4.48,0 4.57143,-4.43429 0.0914,4.43429 4.57143,4.43429 l 22.85714,0 q 4.43429,0 4.57143,-4.29715 l 0,33.41715 0,0.59428 0,7.77143 -64,0 0,-41.78286 m 52.16,16.18286 -6.53714,0 q -3.56572,0 -3.56572,3.56571 l 0,6.58286 q 0,3.56572 3.56572,3.56572 l 6.53714,0 q 3.61143,0 3.61143,-3.56572 l 0,-6.58286 q 0,-3.56571 -3.61143,-3.56571 m -20.70857,7.26857 q -3.10857,0 -3.10857,3.10857 l 0,5.66857 q 0,3.10858 3.10857,3.10858 l 5.71428,0 q 3.06286,0 3.06286,-3.10858 l 0,-5.66857 q 0,-3.10857 -3.06286,-3.10857 l -5.71428,0"
       inkscape:connector-curvature="0"
       style="fill:#acc0c1;stroke:none"
       inkscape:export-filename="C:\Users\Ted\Projects\stellar\assets\source\path5172.png"
       inkscape:export-xdpi="90"
       inkscape:export-ydpi="90" />
    <path
       id="path5168"
       d="m 259.14286,497.33932 q -0.13714,4.25143 -4.57143,4.25143 l -22.85714,0 q -1.69143,0 -2.74286,-0.59429 -1.78286,-1.05143 -1.82857,-3.84 -0.0914,4.43429 -4.57143,4.43429 l -22.85714,0 q -4.43429,0 -4.57143,-4.25143 l 0,-8.86857 0,-0.22857 0,-6.76572 64,0 0,15.86286"
       inkscape:connector-curvature="0"
       style="fill:#869595;stroke:none"
       inkscape:export-filename="C:\Users\Ted\Projects\stellar\assets\source\path5172.png"
       inkscape:export-xdpi="90"
       inkscape:export-ydpi="90" />
    <path
       id="path5170"
       d="m 259.14286,481.47646 -64,0 0,-1.82857 64,0 0,1.82857"
       inkscape:connector-curvature="0"
       style="fill:#93a3a3;stroke:none"
       inkscape:export-filename="C:\Users\Ted\Projects\stellar\assets\source\path5172.png"
       inkscape:export-xdpi="90"
       inkscape:export-ydpi="90" />
    <path
       id="path5172"
       d="m 202.45715,506.16218 12.8,0 0,1.78285 q 0,3.70286 -3.74858,3.70286 l -5.34857,0 q -3.70285,0 -3.70285,-3.70286 l 0,-1.78285 m 24.13714,19.15428 5.71428,0 q 3.06286,0 3.06286,3.10857 l 0,5.66857 q 0,3.10858 -3.06286,3.10858 l -5.71428,0 q -3.10857,0 -3.10857,-3.10858 l 0,-5.66857 q 0,-3.10857 3.10857,-3.10857"
       inkscape:connector-curvature="0"
       style="fill:#bbcbcc;stroke:none"
       inkscape:export-xdpi="90"
       inkscape:export-ydpi="90" />
    <path
       id="path5174"
       d="m 275.14286,569.84218 0,-1.37143 0,-0.22857 q 0,-0.96 0.13714,-1.78286 l 0.0914,-0.41143 0.0457,-0.41143 0.0457,-0.0914 q 1.28,-5.89714 8.50286,-5.89714 l 46.35428,0 q 8.82286,0 8.82286,8.82286 l 0,1.37143 q -0.22857,-8.36572 -8.82286,-8.36572 l -46.35428,0 q -6.62857,0 -8.27429,4.98286 -0.50286,1.46286 -0.54857,3.38286"
       inkscape:connector-curvature="0"
       style="fill:#cfdada;stroke:none"
       inkscape:export-filename="C:\Users\Ted\Projects\stellar\assets\source\path5180.png"
       inkscape:export-xdpi="90"
       inkscape:export-ydpi="90" />
    <path
       id="path5176"
       d="m 275.14286,569.84218 q 0.0457,-1.92 0.54857,-3.38286 1.64572,-4.98286 8.27429,-4.98286 l 46.35428,0 q 8.59429,0 8.82286,8.36572 l 0,45.44 0,0.59428 -0.0914,0.91429 q -0.32,2.33143 -1.46286,3.93143 l -1.14285,1.18857 q -2.19429,1.73714 -6.12572,1.73714 l -46.35428,0 q -3.93143,0 -6.12572,-1.73714 l -1.09714,-1.14286 q -1.50857,-2.05714 -1.6,-5.48571 l 0,-45.44 m 40.13714,5.34857 -3.52,0 q -2.78857,0 -2.78857,2.78857 l 0,3.52 q 0,2.83428 2.78857,2.83428 l 3.52,0 q 2.83429,0 2.83429,-2.83428 l 0,-3.52 q 0,-2.78857 -2.83429,-2.78857 m -23.77143,3.65714 -5.34857,0 q -3.70285,0 -3.70285,3.70286 l 0,5.39428 q 0,3.70286 3.70285,3.70286 l 5.34857,0 q 3.74858,0 3.74858,-3.70286 l 0,-5.39428 q 0,-3.70286 -3.74858,-3.70286 m -3.65714,14.62857 -3.52,0 q -2.78857,0 -2.78857,2.78857 l 0,3.52 q 0,2.83429 2.78857,2.83429 l 3.52,0 q 2.83429,0 2.83429,-2.83429 l 0,-3.52 q 0,-2.78857 -2.83429,-2.78857 m 29.34857,14.72 q 0,3.56572 3.56572,3.56572 l 6.53714,0 q 3.61143,0 3.61143,-3.56572 l 0,-6.58286 q 0,-3.56571 -3.61143,-3.56571 l -6.53714,0 q -3.56572,0 -3.56572,3.56571 l 0,6.58286 m -4.89143,-2.88 -5.71428,0 q -3.10857,0 -3.10857,3.10857 l 0,5.66857 q 0,3.10858 3.10857,3.10858 l 5.71428,0 q 3.06286,0 3.06286,-3.10858 l 0,-5.66857 q 0,-3.10857 -3.06286,-3.10857"
       inkscape:connector-curvature="0"
       style="fill:#acc0c1;stroke:none"
       inkscape:export-filename="C:\Users\Ted\Projects\stellar\assets\source\path5180.png"
       inkscape:export-xdpi="90"
       inkscape:export-ydpi="90" />
    <path
       id="path5178"
       d="m 315.28,575.19075 q 2.83429,0 2.83429,2.78857 l 0,3.52 q 0,2.83428 -2.83429,2.83428 l -3.52,0 q -2.78857,0 -2.78857,-2.83428 l 0,-3.52 q 0,-2.78857 2.78857,-2.78857 l 3.52,0 m 1.92,33.00571 0,-6.58286 q 0,-3.56571 3.56572,-3.56571 l 6.53714,0 q 3.61143,0 3.61143,3.56571 l 0,6.58286 q 0,3.56572 -3.61143,3.56572 l -6.53714,0 q -3.56572,0 -3.56572,-3.56572 m -29.34857,-14.72 q 2.83429,0 2.83429,2.78857 l 0,3.52 q 0,2.83429 -2.83429,2.83429 l -3.52,0 q -2.78857,0 -2.78857,-2.83429 l 0,-3.52 q 0,-2.78857 2.78857,-2.78857 l 3.52,0"
       inkscape:connector-curvature="0"
       style="fill:#a1b1b1;stroke:none"
       inkscape:export-filename="C:\Users\Ted\Projects\stellar\assets\source\path5180.png"
       inkscape:export-xdpi="90"
       inkscape:export-ydpi="90" />
    <path
       id="path5180"
       d="m 291.50857,578.84789 q 3.74858,0 3.74858,3.70286 l 0,5.39428 q 0,3.70286 -3.74858,3.70286 l -5.34857,0 q -3.70285,0 -3.70285,-3.70286 l 0,-5.39428 q 0,-3.70286 3.70285,-3.70286 l 5.34857,0 m 20.8,26.46857 q 3.06286,0 3.06286,3.10857 l 0,5.66857 q 0,3.10858 -3.06286,3.10858 l -5.71428,0 q -3.10857,0 -3.10857,-3.10858 l 0,-5.66857 q 0,-3.10857 3.10857,-3.10857 l 5.71428,0"
       inkscape:connector-curvature="0"
       style="fill:#bbcbcc;stroke:none"
       inkscape:export-xdpi="90"
       inkscape:export-ydpi="90" />
    <path
       id="path5182"
       d="m 435.19286,488.47075 0,-0.22857 0,-8.59429 0.0913,0 0,1.82857 0,6.99429 -0.0913,0 0.0913,0.54857 0,6.76571 0,3.65715 7.21255,7.22285 0,1.28 q 0,3.70286 3.69758,3.70286 l 1.27817,0 2.4194,2.42286 q -0.68473,-0.59429 -2.00856,-0.59429 l -3.51498,0 q -2.78459,0 -2.78459,2.78857 l 0,3.52 q 0,2.83429 2.78459,2.83429 l 3.51498,0 q 2.83024,0 2.83024,-2.83429 l 0,-3.52 q 0,-1.28 -0.54778,-1.92 l 13.37517,13.39429 -0.0456,0.68571 0,5.66857 q 0,3.10858 3.10413,3.10858 l 5.70614,0 0.63908,-0.0457 6.48217,6.49143 -44.23395,0 0,-55.17714"
       inkscape:connector-curvature="0"
       style="fill:#acc0c1;stroke:none"
       inkscape:export-filename="C:\Users\Ted\Projects\stellar\assets\source\path5192.png"
       inkscape:export-xdpi="90"
       inkscape:export-ydpi="90" />
    <path
       id="path5184"
       d="m 435.28416,481.47646 0,-1.82857 11.91441,12.02286 1.23252,1.23428 1.50642,1.46286 49.25535,49.28 -1.82596,0 -62.08274,-62.17143"
       inkscape:connector-curvature="0"
       style="fill:#93a3a3;stroke:none"
       inkscape:export-filename="C:\Users\Ted\Projects\stellar\assets\source\path5192.png"
       inkscape:export-xdpi="90"
       inkscape:export-ydpi="90" />
    <path
       id="path5186"
       d="m 435.28416,481.47646 62.08274,62.17143 -14.28816,0 -47.79458,-47.86286 0,-6.76571 0,-0.54857 0,-6.99429"
       inkscape:connector-curvature="0"
       style="fill:#869595;stroke:none"
       inkscape:export-filename="C:\Users\Ted\Projects\stellar\assets\source\path5192.png"
       inkscape:export-xdpi="90"
       inkscape:export-ydpi="90" />
    <path
       id="path5188"
       d="m 463.54093,527.73932 9.40371,9.41714 -0.63908,0.0457 -5.70614,0 q -3.10413,0 -3.10413,-3.10858 l 0,-5.66857 0.0456,-0.68571 m -16.06847,-16.09143 -1.27817,0 q -3.69758,0 -3.69758,-3.70286 l 0,-1.28 4.97575,4.98286"
       inkscape:connector-curvature="0"
       style="fill:#bbcbcc;stroke:none"
       inkscape:export-filename="C:\Users\Ted\Projects\stellar\assets\source\path5192.png"
       inkscape:export-xdpi="90"
       inkscape:export-ydpi="90" />
    <path
       id="path5190"
       d="m 447.47246,511.64789 -4.97575,-4.98286 -7.21255,-7.22285 0,-3.65715 47.79458,47.86286 -3.65193,0 -6.48217,-6.49143 -9.40371,-9.41714 -13.37517,-13.39429 q 0.54778,0.64 0.54778,1.92 l 0,3.52 q 0,2.83429 -2.83024,2.83429 l -3.51498,0 q -2.78459,0 -2.78459,-2.83429 l 0,-3.52 q 0,-2.78857 2.78459,-2.78857 l 3.51498,0 q 1.32383,0 2.00856,0.59429 l -2.4194,-2.42286"
       inkscape:connector-curvature="0"
       style="fill:#a1b1b1;stroke:none"
       inkscape:export-filename="C:\Users\Ted\Projects\stellar\assets\source\path5192.png"
       inkscape:export-xdpi="90"
       inkscape:export-ydpi="90" />
    <path
       id="path5192"
       d="m 435.19286,488.47075 0.0913,0 0,0.54857 -0.0913,-0.54857"
       inkscape:connector-curvature="0"
       style="fill:#93db24;stroke:none"
       inkscape:export-xdpi="90"
       inkscape:export-ydpi="90" />
    <path
       id="path5194"
       d="m 553.21854,525.40789 3.97147,-4.02286 0,0.22857 0,6.58286 q 0,3.56572 3.56062,3.56572 l 6.52782,0 q 3.60628,0 3.60628,-3.56572 l 0,-6.58286 q 0,-3.56571 -3.60628,-3.56571 l -6.52782,0 -0.22824,0 18.57917,-18.60571 0,35.84 0,0.59428 0,7.77143 -44.14265,0 8.62767,-8.64 q 0.41084,2.19429 3.01284,2.19429 l 5.70614,0 q 3.05848,0 3.05848,-3.10858 l 0,-5.66857 q 0,-2.60571 -2.1455,-3.01714"
       inkscape:connector-curvature="0"
       style="fill:#acc0c1;stroke:none"
       inkscape:export-filename="C:\Users\Ted\Projects\stellar\assets\source\path5204.png"
       inkscape:export-xdpi="90"
       inkscape:export-ydpi="90" />
    <path
       id="path5196"
       d="m 553.21854,525.40789 -9.63196,9.6 -8.62767,8.64 -3.65193,0 47.79458,-47.86286 0,3.65715 -18.57917,18.60571 0.22824,0 6.52782,0 q 3.60628,0 3.60628,3.56571 l 0,6.58286 q 0,3.56572 -3.60628,3.56572 l -6.52782,0 q -3.56062,0 -3.56062,-3.56572 l 0,-6.58286 0,-0.22857 -3.97147,4.02286"
       inkscape:connector-curvature="0"
       style="fill:#a1b1b1;stroke:none"
       inkscape:export-filename="C:\Users\Ted\Projects\stellar\assets\source\path5204.png"
       inkscape:export-xdpi="90"
       inkscape:export-ydpi="90" />
    <path
       id="path5198"
       d="m 517.01882,543.64789 -1.82596,0 49.25535,-49.28 1.50642,-1.46286 1.23252,-1.23428 11.91441,-12.02286 0,1.82857 -62.08274,62.17143"
       inkscape:connector-curvature="0"
       style="fill:#93a3a3;stroke:none"
       inkscape:export-filename="C:\Users\Ted\Projects\stellar\assets\source\path5204.png"
       inkscape:export-xdpi="90"
       inkscape:export-ydpi="90" />
    <path
       id="path5200"
       d="m 553.21854,525.40789 q 2.1455,0.41143 2.1455,3.01714 l 0,5.66857 q 0,3.10858 -3.05848,3.10858 l -5.70614,0 q -2.602,0 -3.01284,-2.19429 l 9.63196,-9.6"
       inkscape:connector-curvature="0"
       style="fill:#bbcbcc;stroke:none"
       inkscape:export-filename="C:\Users\Ted\Projects\stellar\assets\source\path5204.png"
       inkscape:export-xdpi="90"
       inkscape:export-ydpi="90" />
    <path
       id="path5202"
       d="m 579.10156,495.78503 -47.79458,47.86286 -14.28816,0 62.08274,-62.17143 0,6.99429 0,0.54857 0,6.76571"
       inkscape:connector-curvature="0"
       style="fill:#869595;stroke:none"
       inkscape:export-filename="C:\Users\Ted\Projects\stellar\assets\source\path5204.png"
       inkscape:export-xdpi="90"
       inkscape:export-ydpi="90" />
    <path
       id="path5204"
       d="m 579.10156,488.47075 0.0913,0 -0.0913,0.54857 0,-0.54857"
       inkscape:connector-curvature="0"
       style="fill:#93db24;stroke:none"
       inkscape:export-xdpi="90"
       inkscape:export-ydpi="90" />
    <path
       id="path5206"
       d="m 515.23429,561.47646 0,-1.82857 1.82857,0 -1.82857,1.82857"
       inkscape:connector-curvature="0"
       style="fill:#93a3a3;stroke:none"
       inkscape:export-filename="C:\Users\Ted\Projects\stellar\assets\source\path5214.png"
       inkscape:export-xdpi="90"
       inkscape:export-ydpi="90" />
    <path
       id="path5208"
       d="m 515.23429,561.47646 1.82857,-1.82857 14.30857,0 -16.13714,16.13714 0,-14.30857"
       inkscape:connector-curvature="0"
       style="fill:#869595;stroke:none"
       inkscape:export-filename="C:\Users\Ted\Projects\stellar\assets\source\path5214.png"
       inkscape:export-xdpi="90"
       inkscape:export-ydpi="90" />
    <path
       id="path5210"
       d="m 515.23429,561.47646 0,14.30857 0,3.65715 19.79428,-19.79429 44.11429,0 0,55.63429 0,0.59428 0,7.77143 -64,0 0,-55.17714 0,-0.22857 0,-8.59429 0.0914,0 0,1.82857 M 551.76,575.19075 q -2.78857,0 -2.78857,2.78857 l 0,3.52 q 0,2.83428 2.78857,2.83428 l 3.52,0 q 2.83429,0 2.83429,-2.83428 l 0,-3.52 q 0,-2.78857 -2.83429,-2.78857 l -3.52,0 m -20.25143,3.65714 -5.34857,0 q -3.70285,0 -3.70285,3.70286 l 0,5.39428 q 0,3.70286 3.70285,3.70286 l 5.34857,0 q 3.74858,0 3.74858,-3.70286 l 0,-5.39428 q 0,-3.70286 -3.74858,-3.70286 m -3.65714,14.62857 -3.52,0 q -2.78857,0 -2.78857,2.78857 l 0,3.52 q 0,2.83429 2.78857,2.83429 l 3.52,0 q 2.83429,0 2.83429,-2.83429 l 0,-3.52 q 0,-2.78857 -2.83429,-2.78857 m 32.91429,18.28572 6.53714,0 q 3.61143,0 3.61143,-3.56572 l 0,-6.58286 q 0,-3.56571 -3.61143,-3.56571 l -6.53714,0 q -3.56572,0 -3.56572,3.56571 l 0,6.58286 q 0,3.56572 3.56572,3.56572 m -17.28,-3.33715 0,5.66857 q 0,3.10858 3.10857,3.10858 l 5.71428,0 q 3.06286,0 3.06286,-3.10858 l 0,-5.66857 q 0,-3.10857 -3.06286,-3.10857 l -5.71428,0 q -3.10857,0 -3.10857,3.10857"
       inkscape:connector-curvature="0"
       style="fill:#acc0c1;stroke:none"
       inkscape:export-filename="C:\Users\Ted\Projects\stellar\assets\source\path5214.png"
       inkscape:export-xdpi="90"
       inkscape:export-ydpi="90" />
    <path
       id="path5212"
       d="m 535.02857,559.64789 -19.79428,19.79429 0,-3.65715 16.13714,-16.13714 3.65714,0 m 16.73143,15.54286 3.52,0 q 2.83429,0 2.83429,2.78857 l 0,3.52 q 0,2.83428 -2.83429,2.83428 l -3.52,0 q -2.78857,0 -2.78857,-2.83428 l 0,-3.52 q 0,-2.78857 2.78857,-2.78857 m 9.00572,36.57143 q -3.56572,0 -3.56572,-3.56572 l 0,-6.58286 q 0,-3.56571 3.56572,-3.56571 l 6.53714,0 q 3.61143,0 3.61143,3.56571 l 0,6.58286 q 0,3.56572 -3.61143,3.56572 l -6.53714,0 m -32.91429,-18.28572 q 2.83429,0 2.83429,2.78857 l 0,3.52 q 0,2.83429 -2.83429,2.83429 l -3.52,0 q -2.78857,0 -2.78857,-2.83429 l 0,-3.52 q 0,-2.78857 2.78857,-2.78857 l 3.52,0"
       inkscape:connector-curvature="0"
       style="fill:#a1b1b1;stroke:none"
       inkscape:export-filename="C:\Users\Ted\Projects\stellar\assets\source\path5214.png"
       inkscape:export-xdpi="90"
       inkscape:export-ydpi="90" />
    <path
       id="path5214"
       d="m 531.50857,578.84789 q 3.74858,0 3.74858,3.70286 l 0,5.39428 q 0,3.70286 -3.74858,3.70286 l -5.34857,0 q -3.70285,0 -3.70285,-3.70286 l 0,-5.39428 q 0,-3.70286 3.70285,-3.70286 l 5.34857,0 m 11.97715,29.57714 q 0,-3.10857 3.10857,-3.10857 l 5.71428,0 q 3.06286,0 3.06286,3.10857 l 0,5.66857 q 0,3.10858 -3.06286,3.10858 l -5.71428,0 q -3.10857,0 -3.10857,-3.10858 l 0,-5.66857"
       inkscape:connector-curvature="0"
       style="fill:#bbcbcc;stroke:none"
       inkscape:export-xdpi="90"
       inkscape:export-ydpi="90" />
    <path
       id="path5216"
       d="m 499.14286,561.47646 -1.82857,-1.82857 1.82857,0 0,1.82857"
       inkscape:connector-curvature="0"
       style="fill:#93a3a3;stroke:none"
       inkscape:export-filename="C:\Users\Ted\Projects\stellar\assets\source\path5224.png"
       inkscape:export-xdpi="90"
       inkscape:export-ydpi="90" />
    <path
       id="path5218"
       d="m 499.14286,561.47646 0,14.30857 -16.13714,-16.13714 14.30857,0 1.82857,1.82857"
       inkscape:connector-curvature="0"
       style="fill:#869595;stroke:none"
       inkscape:export-filename="C:\Users\Ted\Projects\stellar\assets\source\path5224.png"
       inkscape:export-xdpi="90"
       inkscape:export-ydpi="90" />
    <path
       id="path5220"
       d="m 483.00572,559.64789 16.13714,16.13714 0,3.65715 -19.79429,-19.79429 3.65715,0 m -11.24572,15.54286 3.52,0 q 2.83429,0 2.83429,2.78857 l 0,3.52 q 0,2.83428 -2.83429,2.83428 l -3.52,0 q -2.78857,0 -2.78857,-2.83428 l 0,-3.52 q 0,-2.78857 2.78857,-2.78857 m 9.00572,36.57143 q -3.56572,0 -3.56572,-3.56572 l 0,-6.58286 q 0,-3.56571 3.56572,-3.56571 l 6.53714,0 q 3.61143,0 3.61143,3.56571 l 0,6.58286 q 0,3.56572 -3.61143,3.56572 l -6.53714,0 m -36.43429,-18.28572 3.52,0 q 2.83429,0 2.83429,2.78857 l 0,3.52 q 0,2.83429 -2.83429,2.83429 l -3.52,0 q -2.78857,0 -2.78857,-2.83429 l 0,-3.52 q 0,-2.78857 2.78857,-2.78857"
       inkscape:connector-curvature="0"
       style="fill:#a1b1b1;stroke:none"
       inkscape:export-filename="C:\Users\Ted\Projects\stellar\assets\source\path5224.png"
       inkscape:export-xdpi="90"
       inkscape:export-ydpi="90" />
    <path
       id="path5222"
       d="m 444.33143,593.47646 q -2.78857,0 -2.78857,2.78857 l 0,3.52 q 0,2.83429 2.78857,2.83429 l 3.52,0 q 2.83429,0 2.83429,-2.83429 l 0,-3.52 q 0,-2.78857 -2.83429,-2.78857 l -3.52,0 m 54.81143,-14.03428 0,35.84 0,0.59428 0,7.77143 -64,0 0,-55.17714 0,-0.22857 0,-8.59429 44.20571,0 19.79429,19.79429 M 471.76,575.19075 q -2.78857,0 -2.78857,2.78857 l 0,3.52 q 0,2.83428 2.78857,2.83428 l 3.52,0 q 2.83429,0 2.83429,-2.83428 l 0,-3.52 q 0,-2.78857 -2.83429,-2.78857 l -3.52,0 m -20.25143,3.65714 -5.34857,0 q -3.70285,0 -3.70285,3.70286 l 0,5.39428 q 0,3.70286 3.70285,3.70286 l 5.34857,0 q 3.74858,0 3.74858,-3.70286 l 0,-5.39428 q 0,-3.70286 -3.74858,-3.70286 m 29.25715,32.91429 6.53714,0 q 3.61143,0 3.61143,-3.56572 l 0,-6.58286 q 0,-3.56571 -3.61143,-3.56571 l -6.53714,0 q -3.56572,0 -3.56572,3.56571 l 0,6.58286 q 0,3.56572 3.56572,3.56572 m -8.45715,-6.44572 -5.71428,0 q -3.10857,0 -3.10857,3.10857 l 0,5.66857 q 0,3.10858 3.10857,3.10858 l 5.71428,0 q 3.06286,0 3.06286,-3.10858 l 0,-5.66857 q 0,-3.10857 -3.06286,-3.10857"
       inkscape:connector-curvature="0"
       style="fill:#acc0c1;stroke:none"
       inkscape:export-filename="C:\Users\Ted\Projects\stellar\assets\source\path5224.png"
       inkscape:export-xdpi="90"
       inkscape:export-ydpi="90" />
    <path
       id="path5224"
       d="m 472.30857,605.31646 q 3.06286,0 3.06286,3.10857 l 0,5.66857 q 0,3.10858 -3.06286,3.10858 l -5.71428,0 q -3.10857,0 -3.10857,-3.10858 l 0,-5.66857 q 0,-3.10857 3.10857,-3.10857 l 5.71428,0 m -20.8,-26.46857 q 3.74858,0 3.74858,3.70286 l 0,5.39428 q 0,3.70286 -3.74858,3.70286 l -5.34857,0 q -3.70285,0 -3.70285,-3.70286 l 0,-5.39428 q 0,-3.70286 3.70285,-3.70286 l 5.34857,0"
       inkscape:connector-curvature="0"
       style="fill:#bbcbcc;stroke:none"
       inkscape:export-xdpi="90"
       inkscape:export-ydpi="90" />
    <path
       id="path5226"
       d="m 275.14286,481.47646 0,-1.82857 55.17714,0 1.96572,0.13714 0.0914,0 q 2.56,0.36572 4.16,1.69143 1.50857,1.28 2.14857,3.42857 0.41143,1.37143 0.45714,3.15429 l 0,1.78286 q -0.22857,-8.18286 -8.41143,-8.36572 l -46.76571,0 -0.36572,0 -8.45714,0"
       inkscape:connector-curvature="0"
       style="fill:#93a3a3;stroke:none"
       inkscape:export-filename="C:\Users\Ted\Projects\stellar\assets\source\path5234.png"
       inkscape:export-xdpi="90"
       inkscape:export-ydpi="90" />
    <path
       id="path5228"
       d="m 339.14286,497.33932 0,4.52571 q -0.13714,4.29715 -4.57143,4.29715 l -22.85714,0 q -4.48,0 -4.57143,-4.43429 -0.0914,4.43429 -4.57143,4.43429 l -7.31428,0 -12.8,0 -2.74286,0 q -4.43429,0 -4.57143,-4.29715 l 0,-4.52571 q 0.13714,4.25143 4.57143,4.25143 l 22.85714,0 q 4.48,0 4.57143,-4.43429 0.0457,2.78857 1.82857,3.84 1.05143,0.59429 2.74286,0.59429 l 22.85714,0 q 4.43429,0 4.57143,-4.25143 m -18.37714,20.70857 6.53714,0 q 3.61143,0 3.61143,3.56571 l 0,6.58286 q 0,3.56572 -3.61143,3.56572 l -6.53714,0 q -3.56572,0 -3.56572,-3.56572 l 0,-6.58286 q 0,-3.56571 3.56572,-3.56571 m -36.43429,-4.57143 3.52,0 q 2.83429,0 2.83429,2.78857 l 0,3.52 q 0,2.83429 -2.83429,2.83429 l -3.52,0 q -2.78857,0 -2.78857,-2.83429 l 0,-3.52 q 0,-2.78857 2.78857,-2.78857"
       inkscape:connector-curvature="0"
       style="fill:#a1b1b1;stroke:none"
       inkscape:export-filename="C:\Users\Ted\Projects\stellar\assets\source\path5234.png"
       inkscape:export-xdpi="90"
       inkscape:export-ydpi="90" />
    <path
       id="path5230"
       d="m 275.14286,481.47646 8.45714,0 0.36572,0 46.76571,0 q 8.18286,0.18286 8.41143,8.36572 l 0,7.49714 q -0.13714,4.25143 -4.57143,4.25143 l -22.85714,0 q -1.69143,0 -2.74286,-0.59429 -1.78286,-1.05143 -1.82857,-3.84 -0.0914,4.43429 -4.57143,4.43429 l -22.85714,0 q -4.43429,0 -4.57143,-4.25143 l 0,-8.86857 0,-0.22857 0,-6.76572"
       inkscape:connector-curvature="0"
       style="fill:#869595;stroke:none"
       inkscape:export-filename="C:\Users\Ted\Projects\stellar\assets\source\path5234.png"
       inkscape:export-xdpi="90"
       inkscape:export-ydpi="90" />
    <path
       id="path5232"
       d="m 339.14286,501.86503 0,33.41715 0,0.59428 -0.0914,0.91429 q -0.32,2.33143 -1.46286,3.93143 l -1.14285,1.18857 q -2.19429,1.73714 -6.12572,1.73714 l -55.17714,0 0,-41.78286 q 0.13714,4.29715 4.57143,4.29715 l 2.74286,0 0,1.78285 q 0,3.70286 3.70285,3.70286 l 5.34857,0 q 3.74858,0 3.74858,-3.70286 l 0,-1.78285 7.31428,0 q 4.48,0 4.57143,-4.43429 0.0914,4.43429 4.57143,4.43429 l 22.85714,0 q 4.43429,0 4.57143,-4.29715 m -18.37714,16.18286 q -3.56572,0 -3.56572,3.56571 l 0,6.58286 q 0,3.56572 3.56572,3.56572 l 6.53714,0 q 3.61143,0 3.61143,-3.56572 l 0,-6.58286 q 0,-3.56571 -3.61143,-3.56571 l -6.53714,0 m -36.43429,-4.57143 q -2.78857,0 -2.78857,2.78857 l 0,3.52 q 0,2.83429 2.78857,2.83429 l 3.52,0 q 2.83429,0 2.83429,-2.83429 l 0,-3.52 q 0,-2.78857 -2.83429,-2.78857 l -3.52,0 m 22.26286,11.84 q -2.33143,0 -2.92572,1.78286 l -0.18285,1.32571 0,5.66857 q 0,3.10858 3.10857,3.10858 l 5.71428,0 q 3.06286,0 3.06286,-3.10858 l 0,-5.66857 -0.18286,-1.32571 q -0.54857,-1.78286 -2.88,-1.78286 l -5.71428,0"
       inkscape:connector-curvature="0"
       style="fill:#acc0c1;stroke:none"
       inkscape:export-filename="C:\Users\Ted\Projects\stellar\assets\source\path5234.png"
       inkscape:export-xdpi="90"
       inkscape:export-ydpi="90" />
    <path
       id="path5234"
       d="m 306.59429,525.31646 5.71428,0 q 2.33143,0 2.88,1.78286 l 0.18286,1.32571 0,5.66857 q 0,3.10858 -3.06286,3.10858 l -5.71428,0 q -3.10857,0 -3.10857,-3.10858 l 0,-5.66857 0.18285,-1.32571 q 0.59429,-1.78286 2.92572,-1.78286 m -11.33714,-19.15428 0,1.78285 q 0,3.70286 -3.74858,3.70286 l -5.34857,0 q -3.70285,0 -3.70285,-3.70286 l 0,-1.78285 12.8,0"
       inkscape:connector-curvature="0"
       style="fill:#bbcbcc;stroke:none"
       inkscape:export-xdpi="90"
       inkscape:export-ydpi="90" />
    <path
       id="path5236"
       d="m 118.84572,480.74503 q 1.69143,-0.91428 4.20571,-1.09714 l 0.13714,0 0.0914,0 0.13715,0 0.13714,0 0.13714,0 0.13714,0 0.13715,0 55.17714,0 0,1.82857 -55.17714,0 -0.36572,0 q -6.30857,0.13714 -7.90857,4.98286 -0.50286,1.46286 -0.54857,3.38286 l 0,-1.37143 0,-0.22857 0,-0.22858 q 0,-0.82285 0.13714,-1.55428 l 0.0914,-0.41143 0.0457,-0.41143 0.0457,-0.0914 q 0.27429,-1.28 0.82286,-2.28571 l 0.68571,-0.96 0.82286,-0.82286 1.05143,-0.73143"
       inkscape:connector-curvature="0"
       style="fill:#93a3a3;stroke:none"
       inkscape:export-filename="C:\Users\Ted\Projects\stellar\assets\source\path5246.png"
       inkscape:export-xdpi="90"
       inkscape:export-ydpi="90" />
    <path
       id="path5238"
       d="m 115.14286,489.84218 q 0.0457,-1.92 0.54857,-3.38286 1.6,-4.84572 7.90857,-4.98286 l 0.36572,0 55.17714,0 0,15.86286 q -0.13714,4.25143 -4.57143,4.25143 l -22.85714,0 q -1.69143,0 -2.74286,-0.59429 -1.78286,-1.05143 -1.82857,-3.84 -0.0914,4.43429 -4.57143,4.43429 l -22.85714,0 q -4.43429,0 -4.57143,-4.25143 l 0,-7.49714"
       inkscape:connector-curvature="0"
       style="fill:#869595;stroke:none"
       inkscape:export-filename="C:\Users\Ted\Projects\stellar\assets\source\path5246.png"
       inkscape:export-xdpi="90"
       inkscape:export-ydpi="90" />
    <path
       id="path5240"
       d="m 179.14286,497.33932 0,4.52571 q -0.13714,4.29715 -4.57143,4.29715 l -22.85714,0 q -4.48,0 -4.57143,-4.43429 -0.0914,4.43429 -4.57143,4.43429 l -7.31428,0 -12.8,0 -2.74286,0 q -4.43429,0 -4.57143,-4.29715 l 0,-4.52571 q 0.13714,4.25143 4.57143,4.25143 l 22.85714,0 q 4.48,0 4.57143,-4.43429 0.0457,2.78857 1.82857,3.84 1.05143,0.59429 2.74286,0.59429 l 22.85714,0 q 4.43429,0 4.57143,-4.25143 m -18.37714,20.70857 6.53714,0 q 3.61143,0 3.61143,3.56571 l 0,6.58286 q 0,3.56572 -3.61143,3.56572 l -6.53714,0 q -3.56572,0 -3.56572,-3.56572 l 0,-6.58286 q 0,-3.56571 3.56572,-3.56571 m -36.43429,-4.57143 3.52,0 q 2.83429,0 2.83429,2.78857 l 0,3.52 q 0,2.83429 -2.83429,2.83429 l -3.52,0 q -2.78857,0 -2.78857,-2.83429 l 0,-3.52 q 0,-2.78857 2.78857,-2.78857"
       inkscape:connector-curvature="0"
       style="fill:#a1b1b1;stroke:none"
       inkscape:export-filename="C:\Users\Ted\Projects\stellar\assets\source\path5246.png"
       inkscape:export-xdpi="90"
       inkscape:export-ydpi="90" />
    <path
       id="path5242"
       d="m 124.33143,513.47646 q -2.78857,0 -2.78857,2.78857 l 0,3.52 q 0,2.83429 2.78857,2.83429 l 3.52,0 q 2.83429,0 2.83429,-2.83429 l 0,-3.52 q 0,-2.78857 -2.83429,-2.78857 l -3.52,0 m 54.81143,-11.61143 0,33.41715 0,0.59428 0,7.77143 -55.17714,0 q -3.93143,0 -6.12572,-1.73714 l -1.09714,-1.14286 q -1.50857,-2.05714 -1.6,-5.48571 l 0,-33.41715 q 0.13714,4.29715 4.57143,4.29715 l 2.74286,0 0,1.78285 q 0,3.70286 3.70285,3.70286 l 5.34857,0 q 3.74858,0 3.74858,-3.70286 l 0,-1.78285 7.31428,0 q 4.48,0 4.57143,-4.43429 0.0914,4.43429 4.57143,4.43429 l 22.85714,0 q 4.43429,0 4.57143,-4.29715 m -18.37714,16.18286 q -3.56572,0 -3.56572,3.56571 l 0,6.58286 q 0,3.56572 3.56572,3.56572 l 6.53714,0 q 3.61143,0 3.61143,-3.56572 l 0,-6.58286 q 0,-3.56571 -3.61143,-3.56571 l -6.53714,0 m -14.17143,7.26857 q -3.10857,0 -3.10857,3.10857 l 0,5.66857 q 0,3.10858 3.10857,3.10858 l 5.71428,0 q 3.06286,0 3.06286,-3.10858 l 0,-5.66857 q 0,-3.10857 -3.06286,-3.10857 l -5.71428,0"
       inkscape:connector-curvature="0"
       style="fill:#acc0c1;stroke:none"
       inkscape:export-filename="C:\Users\Ted\Projects\stellar\assets\source\path5246.png"
       inkscape:export-xdpi="90"
       inkscape:export-ydpi="90" />
    <path
       id="path5244"
       d="m 146.59429,525.31646 5.71428,0 q 3.06286,0 3.06286,3.10857 l 0,5.66857 q 0,3.10858 -3.06286,3.10858 l -5.71428,0 q -3.10857,0 -3.10857,-3.10858 l 0,-5.66857 q 0,-3.10857 3.10857,-3.10857 m -11.33714,-19.15428 0,1.78285 q 0,3.70286 -3.74858,3.70286 l -5.34857,0 q -3.70285,0 -3.70285,-3.70286 l 0,-1.78285 12.8,0"
       inkscape:connector-curvature="0"
       style="fill:#bbcbcc;stroke:none"
       inkscape:export-filename="C:\Users\Ted\Projects\stellar\assets\source\path5246.png"
       inkscape:export-xdpi="90"
       inkscape:export-ydpi="90" />
    <path
       id="path5246"
       d="m 118.84572,480.74503 -1.05143,0.73143 -0.82286,0.82286 q 0.73143,-0.96 1.87429,-1.55429"
       inkscape:connector-curvature="0"
       style="fill:#cfdada;stroke:none"
       inkscape:export-xdpi="90"
       inkscape:export-ydpi="90" />
  </g>
</svg>
